<?xml version="1.0" standalone="no"?>
<!DOCTYPE svg PUBLIC "-//W3C//DTD SVG 20010904//EN"
 "http://www.w3.org/TR/2001/REC-SVG-20010904/DTD/svg10.dtd">
<svg version="1.0" xmlns="http://www.w3.org/2000/svg"
 width="512.000000pt" height="512.000000pt" viewBox="0 0 512.000000 512.000000"
 preserveAspectRatio="xMidYMid meet">
<metadata>
Created by potrace 1.14, written by Peter Selinger 2001-2017
</metadata>
<g transform="translate(0.000000,512.000000) scale(0.100000,-0.100000)"
fill="#000000" stroke="none">
<path d="M2407 5104 c-164 -40 -304 -154 -373 -304 l-20 -45 -200 -1 c-161 -1
-205 -4 -230 -17 -54 -28 -58 -39 -59 -166 -1 -116 -1 -116 -25 -118 -14 -1
-140 -4 -280 -6 -194 -3 -266 -8 -301 -20 -161 -54 -266 -153 -344 -327 -20
-45 -20 -63 -23 -1869 -2 -1656 -1 -1830 14 -1880 43 -147 154 -260 315 -319
l74 -27 1573 -3 c1727 -2 1648 -5 1776 58 116 57 205 157 247 277 19 55 19 94
17 1882 -3 1776 -4 1827 -22 1876 -62 161 -184 278 -345 332 -35 12 -107 17
-301 20 -140 2 -266 5 -279 6 -25 2 -25 2 -26 119 0 106 -3 120 -22 139 -34
35 -97 44 -292 44 l-183 -1 -31 66 c-59 124 -198 237 -340 276 -76 21 -250 26
-320 8z m286 -247 c91 -43 151 -113 185 -218 38 -120 58 -129 292 -129 l180 0
1 -65 c0 -36 0 -94 0 -130 0 -36 0 -116 0 -178 l-1 -114 -785 0 c-432 0 -788
4 -791 8 -5 8 -6 89 -5 337 l1 142 169 0 c93 0 181 4 194 9 37 14 73 58 87
105 42 140 136 230 274 261 62 14 129 4 199 -28z m-1168 -817 c1 -187 9 -215
68 -244 31 -14 127 -16 967 -16 880 -1 933 0 962 17 66 39 72 57 73 231 1 87
4 163 7 168 9 14 483 10 534 -4 65 -19 128 -74 161 -139 l28 -58 1 -1779 c1
-1217 -1 -1789 -9 -1810 -25 -74 -99 -133 -192 -154 -22 -4 -733 -8 -1580 -7
-1626 1 -1575 -1 -1645 44 -49 31 -69 54 -88 100 -20 45 -20 68 -19 1826 l2
1780 28 57 c26 54 71 99 125 127 41 22 102 26 341 26 l236 0 0 -165z"/>
<path d="M1952 3393 c-18 -10 -85 -68 -149 -128 -63 -61 -150 -143 -192 -182
-42 -40 -79 -73 -82 -73 -3 0 -39 35 -80 78 -103 108 -123 122 -174 122 -49 0
-99 -38 -111 -84 -15 -61 11 -101 158 -251 77 -79 152 -149 168 -155 45 -19
97 2 165 66 315 296 465 445 466 462 1 10 3 27 4 39 8 81 -99 147 -173 106z"/>
<path d="M2405 3103 c-11 -3 -34 -19 -52 -35 -28 -28 -31 -36 -30 -84 3 -61
30 -99 81 -112 17 -4 355 -8 751 -7 686 1 721 2 748 19 57 38 72 106 37 164
-39 63 -14 61 -800 60 -393 0 -724 -2 -735 -5z"/>
<path d="M1933 2407 c-29 -21 -328 -302 -378 -355 l-22 -24 -93 96 c-51 53
-100 98 -109 100 -45 14 -76 13 -105 -1 -55 -26 -77 -84 -57 -146 7 -19 70
-92 160 -184 147 -151 149 -153 192 -153 25 0 55 8 70 18 15 9 100 87 190 172
89 85 200 191 246 234 97 92 117 135 89 193 -33 69 -124 94 -183 50z"/>
<path d="M2423 2129 c-89 -18 -130 -105 -86 -180 37 -62 10 -60 815 -57 715 3
734 3 760 23 47 35 59 93 32 151 -33 70 0 67 -786 68 -389 1 -720 -2 -735 -5z"/>
<path d="M1963 1447 c-18 -7 -83 -59 -144 -117 -61 -58 -150 -142 -197 -187
-48 -46 -90 -83 -93 -83 -3 0 -40 35 -81 78 -105 109 -123 122 -173 122 -80 0
-135 -86 -104 -163 7 -17 78 -98 157 -179 157 -159 179 -173 244 -144 18 8 56
36 84 63 422 397 460 436 467 473 8 38 -17 104 -46 123 -34 22 -79 27 -114 14z"/>
<path d="M2389 1142 c-67 -35 -88 -96 -54 -161 36 -70 -11 -66 798 -66 800 -1
770 -3 808 59 33 53 20 116 -33 161 -23 20 -39 20 -755 22 -664 1 -734 0 -764
-15z"/>
</g>
</svg>
